HIERARCHY
ROOT Hips
{
	OFFSET 0.00000 0.00000 0.00000
	CHANNELS 6 Xposition Yposition Zposition Zrotation Yrotation Xrotation 
	JOINT LHipJoint
	{
		OFFSET 0 0 0
		CHANNELS 3 Zrotation Yrotation Xrotation
		JOINT LeftHip
		{
			OFFSET 2.36090 -1.39315 1.24752
			CHANNELS 3 Zrotation Yrotation Xrotation
			JOINT LeftKnee
			{
				OFFSET 2.06810 -5.68207 0.00000
				CHANNELS 3 Zrotation Yrotation Xrotation
				JOINT LeftAnkle
				{
					OFFSET 2.46631 -6.77613 0.00000
					CHANNELS 3 Zrotation Yrotation Xrotation
					JOINT LeftToe
					{
						OFFSET 0.26031 -0.71520 1.99545
						CHANNELS 3 Zrotation Yrotation Xrotation
						End Site
						{
							OFFSET 0.00000 -0.00000 1.05957
						}
					}
				}
			}
		}
	}
	JOINT RHipJoint
	{
		OFFSET 0 0 0
		CHANNELS 3 Zrotation Yrotation Xrotation
		JOINT RightHip
		{
			OFFSET -2.25243 -1.39315 1.24752
			CHANNELS 3 Zrotation Yrotation Xrotation
			JOINT RightKnee
			{
				OFFSET -2.17343 -5.97145 0.00000
				CHANNELS 3 Zrotation Yrotation Xrotation
				JOINT RightAnkle
				{
					OFFSET -2.52372 -6.93386 0.00000
					CHANNELS 3 Zrotation Yrotation Xrotation
					JOINT RightToe
					{
						OFFSET -0.22538 -0.61923 2.11447
						CHANNELS 3 Zrotation Yrotation Xrotation
						End Site
						{
							OFFSET -0.00000 -0.00000 1.10506
						}
					}
				}
			}
		}
	}
	JOINT lowerback
	{
		OFFSET 0 0 0
		CHANNELS 3 Zrotation Yrotation Xrotation
		JOINT Chest
		{
			OFFSET 0.01594 2.13103 0.08007
			CHANNELS 3 Zrotation Yrotation Xrotation
			JOINT Chest2
			{
				OFFSET 0.01393 2.09723 0.18338
				CHANNELS 3 Zrotation Yrotation Xrotation
				JOINT lowerneck
				{
					OFFSET 0 0 0
					CHANNELS 3 Zrotation Yrotation Xrotation
					JOINT Neck
					{
						OFFSET 0.05351 1.38915 0.32494
						CHANNELS 3 Zrotation Yrotation Xrotation
						JOINT Head
						{
							OFFSET 0.00711 1.45992 -0.21666
							CHANNELS 3 Zrotation Yrotation Xrotation
							End Site
							{
								OFFSET -0.00433 1.47702 -0.11056
							}
						}
					}
				}
				JOINT LeftCollar
				{
					OFFSET 0 0 0
					CHANNELS 3 Zrotation Yrotation Xrotation
					JOINT LeftShoulder
					{
						OFFSET 2.87198 0.92249 0.11132
CHANNELS 3 Zrotation Xrotation Yrotation
						JOINT LeftElbow
						{
OFFSET 0 -5.527310 0.000000
CHANNELS 3 Zrotation Xrotation Yrotation
							JOINT LeftWrist
							{
OFFSET 0 -3.110590 0.000000
CHANNELS 3 Zrotation Xrotation Yrotation
								JOINT lhand
								{
									OFFSET 0 0 0
CHANNELS 3 Zrotation Xrotation Yrotation
									JOINT LFingers
									{
OFFSET 0 -0.419630 0.000000
CHANNELS 3 Zrotation Xrotation Yrotation
										End Site
										{
OFFSET 0 -0.338310 0.000000
										}
									}
								}
								JOINT LThumb
								{
OFFSET 0 0.000000 0.000000
CHANNELS 3 Zrotation Xrotation Yrotation
									End Site
									{
OFFSET 0 -0.343480 0.343480
									}
								}
							}
						}
					}
				}
				JOINT RightCollar
				{
					OFFSET 0 0 0
					CHANNELS 3 Zrotation Yrotation Xrotation
					JOINT RightShoulder
					{
						OFFSET -2.94710 0.68072 0.32187
CHANNELS 3 Zrotation Xrotation Yrotation
						JOINT RightElbow
						{
OFFSET 0 -5.253960 -0.000000
CHANNELS 3 Zrotation Xrotation Yrotation
							JOINT RightWrist
							{
OFFSET 0 -3.105670 0.000000
CHANNELS 3 Zrotation Xrotation Yrotation
								JOINT rhand
								{
									OFFSET 0 0 0
CHANNELS 3 Zrotation Xrotation Yrotation
									JOINT RFingers
									{
OFFSET 0 -0.498680 0.000000
CHANNELS 3 Zrotation Xrotation Yrotation
										End Site
										{
OFFSET 0 -0.402040 0.000000
										}
									}
								}
								JOINT RThumb
								{
OFFSET 0 0.000000 0.000000
CHANNELS 3 Zrotation Xrotation Yrotation
									End Site
									{
OFFSET 0 -0.408180 0.408180
									}
								}
							}
						}
					}
				}
			}
		}
	}
}
MOTION
Frames: 10
Frame Time: 0.008333333333333333
-9.864100 15.520000 26.354800 -177.746000 -6.549000 -164.953000 0.000000 0.000000 0.000000 -15.771200 -14.830700 -27.837100 10.260900 17.554000 60.356900 -0.357900 -10.830700 1.292000 2.218400 -9.306900 -26.760000 0.000000 0.000000 0.000000 24.558200 24.838700 -26.008400 -3.593000 -11.598100 34.324600 -0.584500 -5.675900 -17.622500 -0.406900 4.095200 -11.344700 10.827900 1.319100 -15.076900 2.560600 -0.834200 -5.203400 -3.550000 -0.837400 2.825200 4.519300 2.939500 -17.314900 -2.924500 1.915900 31.843600 -1.805800 0.265500 13.793100 0.000000 -0.000000 0.000000 7.729300 15.429400 -33.752900 13.753800 -22.381700 2.733700 8.207200 -35.845200 0.407000 0.000000 0.000000 0.000000 -7.125000 0.000000 0.000000 -14.295900 29.415300 -5.590300 0.000000 -0.000000 0.000000 -7.655200 4.528200 13.591000 -12.642100 -20.760600 -2.324900 -15.541100 0.512400 14.949800 0.000000 0.000000 0.000000 7.125000 0.000000 -0.000000 11.196100 45.170100 -0.047600
-9.892547 15.516669 26.161621 -178.066781 -6.472732 -164.686274 0.000000 0.000000 0.000000 -15.041150 -16.323121 -31.136144 10.581028 17.723846 61.413241 -0.203659 -9.257739 -1.608761 2.123686 -9.118970 -26.168334 0.000000 0.000000 0.000000 24.400754 24.839471 -25.561358 -3.662658 -11.697473 34.669978 -0.639714 -5.952524 -18.436831 -0.452040 4.313255 -11.959623 10.520664 1.185238 -15.034481 2.665630 -0.948029 -4.992442 -3.288995 -0.861001 3.020248 4.610096 3.000295 -17.471599 -2.955530 1.999438 31.807749 -1.816866 0.317619 13.817975 0.000000 0.000000 0.000000 7.951734 14.337756 -34.354167 13.971176 -22.693326 2.817042 8.921697 -35.583095 0.905600 0.000000 0.000000 0.000000 -7.125000 0.000000 0.000000 -13.682394 28.936654 -5.497515 0.000000 0.000000 0.000000 -7.635199 2.570066 13.070796 -11.912213 -19.672715 -2.072832 -16.986850 2.704290 15.222889 0.000000 0.000000 0.000000 7.125000 0.000000 0.000000 9.949019 45.624197 -0.153400
-9.931539 15.515789 25.951430 -178.394043 -6.105629 -164.637594 0.000000 0.000000 0.000000 -14.447630 -17.579394 -33.804833 10.605025 17.736294 61.491900 -0.045868 -7.787214 -4.404959 1.993841 -8.853291 -25.337381 0.000000 0.000000 0.000000 24.310273 24.768093 -24.729497 -3.713164 -11.768668 34.918489 -0.711828 -6.009084 -19.237757 -0.484579 4.463711 -12.384996 10.250452 1.131543 -14.831088 2.702842 -0.933276 -4.812386 -3.095782 -0.828072 3.110021 4.673828 3.089438 -17.410000 -2.944341 2.082816 31.915453 -1.813562 0.355868 13.857293 0.000000 0.000000 0.000000 8.255988 13.564999 -34.952330 14.405566 -23.311548 2.986740 9.769437 -35.797492 1.349492 0.000000 0.000000 0.000000 -7.125000 0.000000 0.000000 -12.979918 28.508281 -5.336989 0.000000 0.000000 0.000000 -7.538977 0.983242 12.729361 -11.377911 -18.865167 -1.896297 -18.390084 4.849551 15.984663 0.000000 0.000000 0.000000 7.125000 0.000000 0.000000 8.853107 46.583849 -0.348688
-9.972435 15.514134 25.737910 -178.726840 -5.687257 -164.575684 0.000000 0.000000 0.000000 -13.803511 -18.837534 -36.209685 10.354990 17.604502 60.668093 0.106059 -6.146041 -6.746929 1.884979 -8.622286 -24.620715 0.000000 0.000000 0.000000 24.197750 24.707909 -23.865700 -3.748855 -11.818484 35.092901 -0.782222 -6.037186 -19.964726 -0.516293 4.605194 -12.785969 9.956534 1.103677 -14.583732 2.690963 -0.872937 -4.683948 -2.932768 -0.779891 3.125315 4.710272 3.174846 -17.333631 -2.902904 2.142781 32.108974 -1.800631 0.378669 13.929326 0.000000 0.000000 0.000000 8.651554 12.914943 -35.461811 15.021443 -24.175595 3.234956 10.619864 -36.388800 1.881127 0.000000 0.000000 0.000000 -7.125000 0.000000 0.000000 -12.271332 27.986889 -5.187454 0.000000 0.000000 0.000000 -7.357586 -0.331917 12.685125 -11.111807 -18.459452 -1.811171 -19.367170 6.335119 16.904694 0.000000 0.000000 0.000000 7.125000 0.000000 0.000000 8.180345 47.666609 -0.541169
-10.017665 15.512691 25.519059 -179.022336 -5.201903 -164.575000 0.000000 0.000000 0.000000 -13.138505 -20.009706 -38.258460 9.865965 17.333698 59.039438 0.239780 -4.222638 -8.757487 1.880574 -8.612676 -24.590966 0.000000 0.000000 0.000000 24.139551 24.573192 -22.872048 -3.760055 -11.834037 35.147284 -0.854705 -5.977443 -20.623837 -0.549221 4.747770 -13.190624 9.726351 1.122808 -14.211809 2.620354 -0.735924 -4.548531 -2.853375 -0.693659 3.085907 4.697637 3.238965 -17.441468 -2.828336 2.168929 32.391270 -1.773164 0.385418 14.078636 0.000000 0.000000 0.000000 9.126760 12.275545 -35.804433 15.785885 -25.229403 3.554262 11.414042 -37.245573 2.432595 0.000000 0.000000 0.000000 -7.125000 0.000000 0.000000 -11.610686 27.439293 -5.050645 0.000000 0.000000 0.000000 -7.107986 -1.344714 13.163473 -11.155927 -18.526922 -1.825131 -19.888441 6.801383 17.568518 0.000000 0.000000 0.000000 7.125000 0.000000 0.000000 7.865344 48.428950 -0.669104
-10.065052 15.512461 25.298863 -179.304282 -4.703292 -164.545948 0.000000 0.000000 0.000000 -12.437977 -21.054055 -40.080123 9.157708 16.907118 56.632478 0.329677 -2.087092 -10.330717 1.889520 -8.632109 -24.650990 0.000000 0.000000 0.000000 24.067419 24.366746 -21.887070 -3.751221 -11.821784 35.104434 -0.929113 -5.852191 -21.231831 -0.585425 4.898966 -13.620739 9.518617 1.166496 -13.797815 2.489616 -0.560004 -4.427324 -2.843858 -0.589465 3.010304 4.644172 3.280355 -17.614060 -2.725951 2.177239 32.623410 -1.727691 0.388319 14.218961 0.000000 0.000000 0.000000 9.654500 11.653009 -35.913380 16.700289 -26.460305 3.953245 12.130859 -38.316210 3.043136 0.000000 0.000000 0.000000 -7.125000 0.000000 0.000000 -11.010868 26.825728 -4.942116 0.000000 0.000000 0.000000 -6.813204 -2.071415 14.215909 -11.498523 -19.048244 -1.935596 -19.885830 6.217970 17.791805 0.000000 0.000000 0.000000 7.125000 0.000000 0.000000 7.929218 48.659904 -0.719930
-10.110398 15.513114 25.081524 -179.581327 -4.302372 -164.447205 0.000000 0.000000 0.000000 -11.647844 -21.965974 -41.777054 8.293607 16.330704 53.612917 0.366423 0.015998 -11.442502 1.844653 -8.534722 -24.350414 0.000000 0.000000 0.000000 23.978706 24.145089 -20.958287 -3.727234 -11.788327 34.987341 -0.992329 -5.804486 -21.771785 -0.622185 5.047805 -14.045112 9.289078 1.180334 -13.397800 2.307378 -0.419739 -4.336543 -2.883219 -0.505031 2.904481 4.587565 3.315673 -17.737133 -2.578620 2.182414 32.726315 -1.659104 0.402656 14.290021 0.000000 0.000000 0.000000 10.225414 11.049827 -35.768450 17.721846 -27.799336 4.418801 12.824333 -39.499616 3.679689 0.000000 0.000000 0.000000 -7.125000 0.000000 0.000000 -10.434426 26.179972 -4.835996 0.000000 0.000000 0.000000 -6.463441 -2.626987 15.605525 -12.015063 -19.827150 -2.107414 -19.392375 4.858038 17.486914 0.000000 0.000000 0.000000 7.125000 0.000000 0.000000 8.314762 48.271757 -0.675313
-10.155744 15.515029 24.864593 -179.785603 -3.910616 -164.274109 0.000000 0.000000 0.000000 -10.697113 -22.648469 -43.344766 7.320583 15.593838 50.072960 0.356340 1.656758 -12.006350 1.749299 -8.322954 -23.699571 0.000000 0.000000 0.000000 23.933440 23.966450 -20.023478 -3.667536 -11.704334 34.693960 -1.039252 -5.790998 -22.176489 -0.659976 5.195797 -14.467795 9.094045 1.209728 -13.027374 2.088030 -0.268924 -4.258930 -2.980190 -0.416444 2.800730 4.587721 3.338100 -17.870638 -2.473048 2.187010 32.702594 -1.612745 0.426310 14.308240 0.000000 0.000000 0.000000 10.806917 10.419719 -35.383930 18.815038 -29.187286 4.940769 13.530021 -40.716029 4.237628 0.000000 0.000000 0.000000 -7.125000 0.000000 0.000000 -9.863505 25.606849 -4.697521 0.000000 0.000000 0.000000 -6.076770 -3.081098 17.189834 -12.653675 -20.777369 -2.329193 -18.572907 2.958520 16.752457 0.000000 0.000000 0.000000 7.125000 0.000000 0.000000 8.886535 47.398407 -0.529322
-10.207576 15.522194 24.638457 -179.854399 -3.321575 -164.089613 0.000000 0.000000 0.000000 -9.589011 -23.083936 -44.625757 6.286588 14.699718 46.120064 0.322130 2.709230 -12.065147 1.633924 -8.057752 -22.889640 0.000000 0.000000 0.000000 23.982068 23.836330 -18.904781 -3.543459 -11.526766 34.077705 -1.073395 -5.660490 -22.388343 -0.704280 5.364024 -14.949665 9.031428 1.325359 -12.726973 1.851100 -0.036197 -4.171784 -3.158562 -0.287362 2.754161 4.654193 3.361589 -17.924007 -2.463115 2.221627 32.556688 -1.608245 0.462278 14.257491 0.000000 0.000000 0.000000 11.323615 9.823933 -34.767716 19.927404 -30.554556 5.494508 14.311520 -41.913676 4.790812 0.000000 0.000000 0.000000 -7.125000 0.000000 0.000000 -9.243431 25.031285 -4.520244 0.000000 0.000000 0.000000 -5.691403 -3.460454 18.905277 -13.365977 -21.821096 -2.587845 -17.701675 1.046907 15.942202 0.000000 0.000000 0.000000 7.125000 0.000000 0.000000 9.480622 46.449762 -0.342061
-10.265469 15.536062 24.401790 -179.805404 -2.617839 -163.861454 0.000000 0.000000 0.000000 -8.256792 -23.484441 -45.603198 5.241411 13.647223 41.848832 0.275175 3.265339 -11.661960 1.543150 -7.841394 -22.233346 0.000000 0.000000 0.000000 24.096880 23.742653 -17.610609 -3.352923 -11.245256 33.111813 -1.091473 -5.462578 -22.419080 -0.759936 5.566969 -15.533076 9.080990 1.496633 -12.555750 1.593122 0.235375 -4.083339 -3.417040 -0.138595 2.785682 4.810479 3.412382 -17.949187 -2.529961 2.302126 32.351231 -1.640949 0.521034 14.179420 0.000000 0.000000 0.000000 11.771883 9.260614 -33.972060 20.996537 -31.823546 6.048434 15.194368 -43.053133 5.412760 0.000000 0.000000 0.000000 -7.125000 0.000000 0.000000 -8.552622 24.375358 -4.306042 0.000000 0.000000 0.000000 -5.304420 -3.802958 20.611481 -14.088651 -22.860961 -2.862667 -16.742147 -0.562626 15.275378 0.000000 0.000000 0.000000 7.125000 0.000000 0.000000 10.187379 45.646971 -0.163848
